<mxfile host="app.diagrams.net" modified="2023-09-21T13:20:51.136Z" agent="Mozilla/5.0 (Windows NT 10.0; Win64; x64) AppleWebKit/537.36 (KHTML, like Gecko) Chrome/116.0.0.0 Safari/537.36" etag="zR1hrnbbXATaivy-AoK9" version="21.5.2" type="device">
  <diagram name="Страница 1" id="gEAZNQvD18HEzGSJoi4u">
    <mxGraphModel dx="1877" dy="566" grid="1" gridSize="10" guides="1" tooltips="1" connect="1" arrows="1" fold="1" page="1" pageScale="1" pageWidth="827" pageHeight="1169" math="0" shadow="0">
      <root>
        <mxCell id="0" />
        <mxCell id="1" parent="0" />
        <mxCell id="-EFWfYROZ0XUmNJ8-u3V-13" style="edgeStyle=orthogonalEdgeStyle;rounded=0;orthogonalLoop=1;jettySize=auto;html=1;exitX=0.5;exitY=1;exitDx=0;exitDy=0;entryX=0.5;entryY=0;entryDx=0;entryDy=0;" edge="1" parent="1" source="-EFWfYROZ0XUmNJ8-u3V-1" target="-EFWfYROZ0XUmNJ8-u3V-9">
          <mxGeometry relative="1" as="geometry" />
        </mxCell>
        <mxCell id="-EFWfYROZ0XUmNJ8-u3V-1" value="Начало" style="rounded=1;whiteSpace=wrap;html=1;" vertex="1" parent="1">
          <mxGeometry x="280" y="70" width="200" height="40" as="geometry" />
        </mxCell>
        <mxCell id="-EFWfYROZ0XUmNJ8-u3V-15" style="edgeStyle=orthogonalEdgeStyle;rounded=0;orthogonalLoop=1;jettySize=auto;html=1;exitX=0.5;exitY=1;exitDx=0;exitDy=0;exitPerimeter=0;entryX=0.5;entryY=0;entryDx=0;entryDy=0;" edge="1" parent="1" source="-EFWfYROZ0XUmNJ8-u3V-3" target="-EFWfYROZ0XUmNJ8-u3V-6">
          <mxGeometry relative="1" as="geometry" />
        </mxCell>
        <mxCell id="-EFWfYROZ0XUmNJ8-u3V-3" value="A пока i &amp;lt; length" style="strokeWidth=2;html=1;shape=mxgraph.flowchart.loop_limit;whiteSpace=wrap;" vertex="1" parent="1">
          <mxGeometry x="280" y="260" width="200" height="40" as="geometry" />
        </mxCell>
        <mxCell id="-EFWfYROZ0XUmNJ8-u3V-5" value="Пишем в отдельной функции, поэтому подразумеваем, что&lt;br&gt;необходимые значения уже получены, создан исходный массив.&amp;nbsp;" style="text;html=1;align=center;verticalAlign=middle;resizable=0;points=[];autosize=1;strokeColor=none;fillColor=none;" vertex="1" parent="1">
          <mxGeometry x="-5" y="10" width="390" height="40" as="geometry" />
        </mxCell>
        <mxCell id="-EFWfYROZ0XUmNJ8-u3V-16" style="edgeStyle=orthogonalEdgeStyle;rounded=0;orthogonalLoop=1;jettySize=auto;html=1;exitX=1;exitY=0.5;exitDx=0;exitDy=0;" edge="1" parent="1" source="-EFWfYROZ0XUmNJ8-u3V-6" target="-EFWfYROZ0XUmNJ8-u3V-7">
          <mxGeometry relative="1" as="geometry" />
        </mxCell>
        <mxCell id="-EFWfYROZ0XUmNJ8-u3V-17" value="Да" style="edgeLabel;html=1;align=center;verticalAlign=middle;resizable=0;points=[];" vertex="1" connectable="0" parent="-EFWfYROZ0XUmNJ8-u3V-16">
          <mxGeometry x="-0.2444" relative="1" as="geometry">
            <mxPoint as="offset" />
          </mxGeometry>
        </mxCell>
        <mxCell id="-EFWfYROZ0XUmNJ8-u3V-20" style="edgeStyle=orthogonalEdgeStyle;rounded=0;orthogonalLoop=1;jettySize=auto;html=1;exitX=0.5;exitY=1;exitDx=0;exitDy=0;entryX=0.5;entryY=0;entryDx=0;entryDy=0;" edge="1" parent="1" source="-EFWfYROZ0XUmNJ8-u3V-6" target="-EFWfYROZ0XUmNJ8-u3V-10">
          <mxGeometry relative="1" as="geometry" />
        </mxCell>
        <mxCell id="-EFWfYROZ0XUmNJ8-u3V-21" value="Нет" style="edgeLabel;html=1;align=center;verticalAlign=middle;resizable=0;points=[];" vertex="1" connectable="0" parent="-EFWfYROZ0XUmNJ8-u3V-20">
          <mxGeometry x="-0.52" relative="1" as="geometry">
            <mxPoint as="offset" />
          </mxGeometry>
        </mxCell>
        <mxCell id="-EFWfYROZ0XUmNJ8-u3V-6" value="array[i] &amp;lt;= 3 char" style="rhombus;whiteSpace=wrap;html=1;" vertex="1" parent="1">
          <mxGeometry x="300" y="330" width="150" height="120" as="geometry" />
        </mxCell>
        <mxCell id="-EFWfYROZ0XUmNJ8-u3V-18" style="edgeStyle=orthogonalEdgeStyle;rounded=0;orthogonalLoop=1;jettySize=auto;html=1;exitX=0.5;exitY=1;exitDx=0;exitDy=0;" edge="1" parent="1" source="-EFWfYROZ0XUmNJ8-u3V-7" target="-EFWfYROZ0XUmNJ8-u3V-10">
          <mxGeometry relative="1" as="geometry">
            <Array as="points">
              <mxPoint x="630" y="520" />
            </Array>
          </mxGeometry>
        </mxCell>
        <mxCell id="-EFWfYROZ0XUmNJ8-u3V-7" value="newArray[element] = array[i];&lt;br&gt;element = element + 1;" style="shape=parallelogram;perimeter=parallelogramPerimeter;whiteSpace=wrap;html=1;fixedSize=1;" vertex="1" parent="1">
          <mxGeometry x="530" y="355" width="200" height="70" as="geometry" />
        </mxCell>
        <mxCell id="-EFWfYROZ0XUmNJ8-u3V-14" style="edgeStyle=orthogonalEdgeStyle;rounded=0;orthogonalLoop=1;jettySize=auto;html=1;exitX=0.5;exitY=1;exitDx=0;exitDy=0;entryX=0.5;entryY=0;entryDx=0;entryDy=0;entryPerimeter=0;" edge="1" parent="1" source="-EFWfYROZ0XUmNJ8-u3V-9" target="-EFWfYROZ0XUmNJ8-u3V-3">
          <mxGeometry relative="1" as="geometry" />
        </mxCell>
        <mxCell id="-EFWfYROZ0XUmNJ8-u3V-9" value="i = 0;&lt;br style=&quot;border-color: var(--border-color);&quot;&gt;element = 0;&lt;br style=&quot;border-color: var(--border-color);&quot;&gt;newArray [size] {}" style="rounded=0;whiteSpace=wrap;html=1;" vertex="1" parent="1">
          <mxGeometry x="285" y="150" width="190" height="60" as="geometry" />
        </mxCell>
        <mxCell id="-EFWfYROZ0XUmNJ8-u3V-22" style="edgeStyle=orthogonalEdgeStyle;rounded=0;orthogonalLoop=1;jettySize=auto;html=1;exitX=0.5;exitY=1;exitDx=0;exitDy=0;entryX=0.5;entryY=1;entryDx=0;entryDy=0;entryPerimeter=0;" edge="1" parent="1" source="-EFWfYROZ0XUmNJ8-u3V-10" target="-EFWfYROZ0XUmNJ8-u3V-11">
          <mxGeometry relative="1" as="geometry" />
        </mxCell>
        <mxCell id="-EFWfYROZ0XUmNJ8-u3V-10" value="i = i + 1" style="shape=parallelogram;perimeter=parallelogramPerimeter;whiteSpace=wrap;html=1;fixedSize=1;" vertex="1" parent="1">
          <mxGeometry x="275" y="500" width="200" height="60" as="geometry" />
        </mxCell>
        <mxCell id="-EFWfYROZ0XUmNJ8-u3V-23" style="edgeStyle=orthogonalEdgeStyle;rounded=0;orthogonalLoop=1;jettySize=auto;html=1;exitX=0.5;exitY=0;exitDx=0;exitDy=0;exitPerimeter=0;entryX=0.5;entryY=0;entryDx=0;entryDy=0;" edge="1" parent="1" source="-EFWfYROZ0XUmNJ8-u3V-11" target="-EFWfYROZ0XUmNJ8-u3V-12">
          <mxGeometry relative="1" as="geometry" />
        </mxCell>
        <mxCell id="-EFWfYROZ0XUmNJ8-u3V-11" value="А" style="strokeWidth=2;html=1;shape=mxgraph.flowchart.loop_limit;whiteSpace=wrap;rotation=-180;verticalAlign=middle;horizontal=1;" vertex="1" parent="1">
          <mxGeometry x="275" y="610" width="200" height="40" as="geometry" />
        </mxCell>
        <mxCell id="-EFWfYROZ0XUmNJ8-u3V-12" value="Конец" style="rounded=1;whiteSpace=wrap;html=1;" vertex="1" parent="1">
          <mxGeometry x="275" y="690" width="200" height="40" as="geometry" />
        </mxCell>
      </root>
    </mxGraphModel>
  </diagram>
</mxfile>
